<svg id="Layer_2" data-name="Layer 2" xmlns="http://www.w3.org/2000/svg" viewBox="0 0 40 40"><title>Artboard 4 copy</title><path d="M30,9V31H10V9H30m1-1H9V32H31V8Z"/><rect x="13" y="11" width="2" height="3"/><rect x="17" y="11" width="2" height="3"/><rect x="25" y="11" width="2" height="3"/><rect x="21" y="11" width="2" height="3"/><rect x="13" y="16" width="2" height="3"/><rect x="17" y="16" width="2" height="3"/><rect x="25" y="16" width="2" height="3"/><rect x="21" y="16" width="2" height="3"/><rect x="13" y="21" width="2" height="3"/><rect x="17" y="21" width="2" height="3"/><rect x="25" y="21" width="2" height="3"/><rect x="21" y="21" width="2" height="3"/><path d="M22,27v4H18V27h4m1-1H17v6h6V26Z"/></svg>