<svg id="Layer_2" data-name="Layer 2" xmlns="http://www.w3.org/2000/svg" viewBox="0 0 40 40"><title>Artboard 6 copy</title><path d="M28,16c-.46-1.71-2.31-6-6-6H13c-2.36,0-2.88,4.49-3,5.7l1-.23c.18-1.81.83-4.47,2-4.47h9c3,0,4.48,3.62,4.91,4.85Z"/><path d="M15,22a2,2,0,1,1-2,2,2,2,0,0,1,2-2m0-1a3,3,0,1,0,3,3,3,3,0,0,0-3-3Z"/><path d="M28,22a2,2,0,1,1-2,2,2,2,0,0,1,2-2m0-1a3,3,0,1,0,3,3,3,3,0,0,0-3-3Z"/><path d="M21.5,24h-1c0-2.68-2.93-8.21-3-8.26l-.06-.11,0-4.63h1l0,4.38C18.92,16.22,21.5,21.27,21.5,24Z"/><rect x="21" y="17" width="2" height="1"/><path d="M17.49,24h8l.22-1H17.38Zm-4.86-1H11a1.77,1.77,0,0,1-2-2V19c0-1.49.62-3,2-3H25c5.9,0,8,2.58,8,5a1.77,1.77,0,0,1-2,2h-.57l.06,1H31a2.76,2.76,0,0,0,3-3c0-3-2.56-6-9-6H11c-1.94,0-3,1.84-3,4v2a2.75,2.75,0,0,0,3,3h1.49Z"/></svg>