<svg viewBox="0 0 40 40" width="80" height="80"><g><path d="M28 16c-.46-1.71-2.31-6-6-6h-9c-2.36 0-2.88 4.49-3 5.7l1-.23c.18-1.81.83-4.47 2-4.47h9c3 0 4.48 3.62 4.91 4.85zM15 22a2 2 0 1 1-2 2 2 2 0 0 1 2-2m0-1a3 3 0 1 0 3 3 3 3 0 0 0-3-3zM28 22a2 2 0 1 1-2 2 2 2 0 0 1 2-2m0-1a3 3 0 1 0 3 3 3 3 0 0 0-3-3z"/><path d="M21.5 24h-1c0-2.68-2.93-8.21-3-8.26l-.06-.11V11h1v4.38c.48.84 3.06 5.89 3.06 8.62zM21 17h2v1h-2z"/><path d="M17.49 24h8l.22-1h-8.33zm-4.86-1H11a1.77 1.77 0 0 1-2-2v-2c0-1.49.62-3 2-3h14c5.9 0 8 2.58 8 5a1.77 1.77 0 0 1-2 2h-.57l.06 1H31a2.76 2.76 0 0 0 3-3c0-3-2.56-6-9-6H11c-1.94 0-3 1.84-3 4v2a2.75 2.75 0 0 0 3 3h1.49z"/></g></svg>
