<svg viewBox="0 0 40 40" width="80" height="80"><g><path d="M31 9v22H9V9h22m1-1H8v24h24V8z"/><path d="M27 11h2v2h-2zM24 11h2v2h-2zM27 22.5a2.68 2.68 0 0 1-2.12-1.17c-.46-.53-.75-.83-1.37-.83s-.91.3-1.37.83a2.52 2.52 0 0 1-4.25 0c-.46-.53-.76-.83-1.38-.83s-.91.3-1.37.83A2.68 2.68 0 0 1 13 22.5v-1c.62 0 .91-.3 1.38-.83a2.68 2.68 0 0 1 2.12-1.17 2.68 2.68 0 0 1 2.13 1.17c.46.53.76.83 1.38.83s.91-.3 1.37-.83a2.51 2.51 0 0 1 4.25 0c.46.53.75.83 1.37.83z"/><path d="M20 15a6 6 0 1 1-6 6 6 6 0 0 1 6-6m0-1a7 7 0 1 0 7 7 7 7 0 0 0-7-7z"/></g></svg>
