<svg id="Layer_2" data-name="Layer 2" xmlns="http://www.w3.org/2000/svg" xmlns:xlink="http://www.w3.org/1999/xlink" viewBox="0 0 40 40"><defs><style>.cls-1{fill:none;}.cls-2{clip-path:url(#clip-path);}</style><clipPath id="clip-path"><circle class="cls-1" cx="20" cy="21" r="7"/></clipPath></defs><title>Artboard 2 copy</title><path d="M31,9V31H9V9H31m1-1H8V32H32V8Z"/><rect x="27" y="11" width="2" height="2"/><rect x="24" y="11" width="2" height="2"/><g class="cls-2"><path d="M27,22.5a2.68,2.68,0,0,1-2.12-1.17c-.46-.53-.75-.83-1.37-.83s-.91.3-1.37.83a2.52,2.52,0,0,1-4.25,0c-.46-.53-.76-.83-1.38-.83s-.91.3-1.37.83A2.68,2.68,0,0,1,13,22.5v-1c.62,0,.91-.3,1.38-.83A2.68,2.68,0,0,1,16.5,19.5a2.68,2.68,0,0,1,2.13,1.17c.46.53.76.83,1.38.83s.91-.3,1.37-.83a2.51,2.51,0,0,1,4.25,0c.46.53.75.83,1.37.83Z"/></g><path d="M20,15a6,6,0,1,1-6,6,6,6,0,0,1,6-6m0-1a7,7,0,1,0,7,7,7,7,0,0,0-7-7Z"/></svg>