<svg id="Layer_2" data-name="Layer 2" xmlns="http://www.w3.org/2000/svg" viewBox="0 0 40 40"><title>Artboard 5 copy</title><path d="M30.49,29.5a2.68,2.68,0,0,1-2.13-1.17c-.46-.53-.76-.83-1.38-.83s-.91.3-1.37.83a2.52,2.52,0,0,1-4.25,0c-.46-.53-.76-.83-1.37-.83s-.91.3-1.37.83a2.68,2.68,0,0,1-2.12,1.17,2.68,2.68,0,0,1-2.12-1.17c-.46-.53-.75-.83-1.37-.83s-.91.3-1.37.83A2.68,2.68,0,0,1,9.5,29.5a2.68,2.68,0,0,1-2.13-1.17c-.46-.53-.76-.83-1.37-.83v-1a2.68,2.68,0,0,1,2.13,1.17c.46.53.76.83,1.37.83s.91-.3,1.37-.83A2.68,2.68,0,0,1,13,26.5a2.67,2.67,0,0,1,2.12,1.17c.46.53.75.83,1.37.83s.91-.3,1.37-.83a2.51,2.51,0,0,1,4.25,0c.46.53.76.83,1.37.83s.91-.3,1.37-.83a2.52,2.52,0,0,1,4.25,0c.46.53.76.83,1.38.83s.91-.3,1.38-.83A2.68,2.68,0,0,1,34,26.5v1c-.62,0-.91.3-1.38.83A2.68,2.68,0,0,1,30.49,29.5Z"/><path d="M30.49,26.5a2.68,2.68,0,0,1-2.13-1.17c-.46-.53-.76-.83-1.38-.83s-.91.3-1.37.83a2.52,2.52,0,0,1-4.25,0c-.46-.53-.76-.83-1.37-.83s-.91.3-1.37.83a2.68,2.68,0,0,1-2.12,1.17,2.68,2.68,0,0,1-2.12-1.17c-.46-.53-.75-.83-1.37-.83s-.91.3-1.37.83A2.68,2.68,0,0,1,9.5,26.5a2.68,2.68,0,0,1-2.13-1.17c-.46-.53-.76-.83-1.37-.83v-1a2.68,2.68,0,0,1,2.13,1.17c.46.53.76.83,1.37.83s.91-.3,1.37-.83A2.68,2.68,0,0,1,13,23.5a2.67,2.67,0,0,1,2.12,1.17c.46.53.75.83,1.37.83s.91-.3,1.37-.83a2.51,2.51,0,0,1,4.25,0c.46.53.76.83,1.37.83s.91-.3,1.37-.83a2.52,2.52,0,0,1,4.25,0c.46.53.76.83,1.38.83s.91-.3,1.38-.83A2.68,2.68,0,0,1,34,23.5v1c-.62,0-.91.3-1.38.83A2.68,2.68,0,0,1,30.49,26.5Z"/><path d="M30.49,23.5a2.68,2.68,0,0,1-2.13-1.17c-.46-.53-.76-.83-1.38-.83s-.91.3-1.37.83a2.52,2.52,0,0,1-4.25,0c-.46-.53-.76-.83-1.37-.83s-.91.3-1.37.83a2.68,2.68,0,0,1-2.12,1.17,2.68,2.68,0,0,1-2.12-1.17c-.46-.53-.75-.83-1.37-.83s-.91.3-1.37.83A2.68,2.68,0,0,1,9.5,23.5a2.68,2.68,0,0,1-2.13-1.17c-.46-.53-.76-.83-1.37-.83v-1a2.68,2.68,0,0,1,2.13,1.17c.46.53.76.83,1.37.83s.91-.3,1.37-.83A2.68,2.68,0,0,1,13,20.5a2.67,2.67,0,0,1,2.12,1.17c.46.53.75.83,1.37.83s.91-.3,1.37-.83a2.51,2.51,0,0,1,4.25,0c.46.53.76.83,1.37.83s.91-.3,1.37-.83a2.52,2.52,0,0,1,4.25,0c.46.53.76.83,1.38.83s.91-.3,1.38-.83A2.68,2.68,0,0,1,34,20.5v1c-.62,0-.91.3-1.38.83A2.68,2.68,0,0,1,30.49,23.5Z"/><rect x="15" y="8" width="1" height="15"/><rect x="24" y="8" width="1" height="15"/><rect x="6" y="10" width="28" height="1"/><rect x="15" y="14" width="10" height="1"/><rect x="15" y="18" width="10" height="1"/></svg>