<svg viewBox="0 0 40 40" width="80" height="80"><g><path d="M30.49 29.5a2.68 2.68 0 0 1-2.13-1.17c-.46-.53-.76-.83-1.38-.83s-.91.3-1.37.83a2.52 2.52 0 0 1-4.25 0c-.46-.53-.76-.83-1.37-.83s-.91.3-1.37.83a2.68 2.68 0 0 1-2.12 1.17 2.68 2.68 0 0 1-2.12-1.17c-.46-.53-.75-.83-1.37-.83s-.91.3-1.37.83A2.68 2.68 0 0 1 9.5 29.5a2.68 2.68 0 0 1-2.13-1.17c-.46-.53-.76-.83-1.37-.83v-1a2.68 2.68 0 0 1 2.13 1.17c.46.53.76.83 1.37.83s.91-.3 1.37-.83A2.68 2.68 0 0 1 13 26.5a2.67 2.67 0 0 1 2.12 1.17c.46.53.75.83 1.37.83s.91-.3 1.37-.83a2.51 2.51 0 0 1 4.25 0c.46.53.76.83 1.37.83s.91-.3 1.37-.83a2.52 2.52 0 0 1 4.25 0c.46.53.76.83 1.38.83s.91-.3 1.38-.83A2.68 2.68 0 0 1 34 26.5v1c-.62 0-.91.3-1.38.83a2.68 2.68 0 0 1-2.13 1.17z"/><path d="M30.49 26.5a2.68 2.68 0 0 1-2.13-1.17c-.46-.53-.76-.83-1.38-.83s-.91.3-1.37.83a2.52 2.52 0 0 1-4.25 0c-.46-.53-.76-.83-1.37-.83s-.91.3-1.37.83a2.68 2.68 0 0 1-2.12 1.17 2.68 2.68 0 0 1-2.12-1.17c-.46-.53-.75-.83-1.37-.83s-.91.3-1.37.83A2.68 2.68 0 0 1 9.5 26.5a2.68 2.68 0 0 1-2.13-1.17c-.46-.53-.76-.83-1.37-.83v-1a2.68 2.68 0 0 1 2.13 1.17c.46.53.76.83 1.37.83s.91-.3 1.37-.83A2.68 2.68 0 0 1 13 23.5a2.67 2.67 0 0 1 2.12 1.17c.46.53.75.83 1.37.83s.91-.3 1.37-.83a2.51 2.51 0 0 1 4.25 0c.46.53.76.83 1.37.83s.91-.3 1.37-.83a2.52 2.52 0 0 1 4.25 0c.46.53.76.83 1.38.83s.91-.3 1.38-.83A2.68 2.68 0 0 1 34 23.5v1c-.62 0-.91.3-1.38.83a2.68 2.68 0 0 1-2.13 1.17z"/><path d="M30.49 23.5a2.68 2.68 0 0 1-2.13-1.17c-.46-.53-.76-.83-1.38-.83s-.91.3-1.37.83a2.52 2.52 0 0 1-4.25 0c-.46-.53-.76-.83-1.37-.83s-.91.3-1.37.83a2.68 2.68 0 0 1-2.12 1.17 2.68 2.68 0 0 1-2.12-1.17c-.46-.53-.75-.83-1.37-.83s-.91.3-1.37.83A2.68 2.68 0 0 1 9.5 23.5a2.68 2.68 0 0 1-2.13-1.17c-.46-.53-.76-.83-1.37-.83v-1a2.68 2.68 0 0 1 2.13 1.17c.46.53.76.83 1.37.83s.91-.3 1.37-.83A2.68 2.68 0 0 1 13 20.5a2.67 2.67 0 0 1 2.12 1.17c.46.53.75.83 1.37.83s.91-.3 1.37-.83a2.51 2.51 0 0 1 4.25 0c.46.53.76.83 1.37.83s.91-.3 1.37-.83a2.52 2.52 0 0 1 4.25 0c.46.53.76.83 1.38.83s.91-.3 1.38-.83A2.68 2.68 0 0 1 34 20.5v1c-.62 0-.91.3-1.38.83a2.68 2.68 0 0 1-2.13 1.17z"/><path d="M15 8h1v15h-1zM24 8h1v15h-1z"/><path d="M6 10h28v1H6zM15 14h10v1H15zM15 18h10v1H15z"/></g></svg>
