<?xml version="1.0" standalone="no"?>
<!DOCTYPE svg PUBLIC "-//W3C//DTD SVG 20010904//EN"
  "http://www.w3.org/TR/2001/REC-SVG-20010904/DTD/svg10.dtd">
<svg width="80" height="80">
<g style="<defs>
</defs>
">
<g style="">
  <path d="M20,9A11,11,0,1,1,9,20,11,11,0,0,1,20,9m0-1A12,12,0,1,0,32,20,12,12,0,0,0,20,8Z"/>
</g>
<g style="">
  <path d="M22.46,23.35a9,9,0,0,1,5.65,4.73l.78-.65a10,10,0,0,0-6.6-5.15h0a4,4,0,0,1-4.58,0,10,10,0,0,0-6.55,5l.67.88a9,9,0,0,1,5.71-4.85,5,5,0,0,0,4.91,0"/>
</g>
<g style="">
  <path d="M20,15a4,4,0,1,1-4,4,4,4,0,0,1,4-4m0-1a5,5,0,1,0,5,5,5,5,0,0,0-5-5Z"/>
</g>
<g style="">
  <circle cx="20" cy="20" r="12"/>
</g>
</g>
</svg>
