<svg id="Layer_2" data-name="Layer 2" xmlns="http://www.w3.org/2000/svg" viewBox="0 0 40 40"><defs><style>.cls-1{fill:none;}</style></defs><title>Artboard 9 copy 3</title><path d="M20,9A11,11,0,1,1,9,20,11,11,0,0,1,20,9m0-1A12,12,0,1,0,32,20,12,12,0,0,0,20,8Z"/><path d="M22.46,23.35a9,9,0,0,1,5.65,4.73l.78-.65a10,10,0,0,0-6.6-5.15h0a4,4,0,0,1-4.58,0,10,10,0,0,0-6.55,5l.67.88a9,9,0,0,1,5.71-4.85,5,5,0,0,0,4.91,0"/><path d="M20,15a4,4,0,1,1-4,4,4,4,0,0,1,4-4m0-1a5,5,0,1,0,5,5,5,5,0,0,0-5-5Z"/><circle class="cls-1" cx="20" cy="20" r="12"/></svg>